<?xml version="1.0" encoding="UTF-8" standalone="no"?>
<!DOCTYPE svg PUBLIC "-//W3C//DTD SVG 1.1//EN"
 "http://www.w3.org/Graphics/SVG/1.1/DTD/svg11.dtd">
<!-- Generated by graphviz version 2.38.0 (20140413.2041)
 -->
<!-- Title: controllers_diagram Pages: 1 -->
<svg width="610pt" height="589pt"
 viewBox="0.00 0.00 609.71 589.00" xmlns="http://www.w3.org/2000/svg" xmlns:xlink="http://www.w3.org/1999/xlink">
<g id="graph0" class="graph" transform="scale(1 1) rotate(0) translate(241.891 333.5)">
<title>controllers_diagram</title>
<polygon fill="none" stroke="none" points="-241.891,255.5 -241.891,-333.5 367.821,-333.5 367.821,255.5 -241.891,255.5"/>
<!-- _diagram_info -->
<g id="node1" class="node"><title>_diagram_info</title>
<text text-anchor="start" x="120.312" y="52.9" font-family="Times,serif" font-size="13.00">Controllers diagram</text>
<text text-anchor="start" x="120.312" y="65.9" font-family="Times,serif" font-size="13.00">Date: Sep 03 2016 &#45; 22:26</text>
<text text-anchor="start" x="120.312" y="78.9" font-family="Times,serif" font-size="13.00">Migration version: 20160903132236</text>
<text text-anchor="start" x="120.312" y="91.9" font-family="Times,serif" font-size="13.00">Generated by RailRoady 1.5.1</text>
<text text-anchor="start" x="120.312" y="104.9" font-family="Times,serif" font-size="13.00">http://railroady.prestonlee.com</text>
</g>
<!-- ApplicationController -->
<g id="node2" class="node"><title>ApplicationController</title>
<path fill="none" stroke="black" d="M-99.9658,55C-99.9658,55 73.9658,55 73.9658,55 79.9658,55 85.9658,49 85.9658,43 85.9658,43 85.9658,-37 85.9658,-37 85.9658,-43 79.9658,-49 73.9658,-49 73.9658,-49 -99.9658,-49 -99.9658,-49 -105.966,-49 -111.966,-43 -111.966,-37 -111.966,-37 -111.966,43 -111.966,43 -111.966,49 -105.966,55 -99.9658,55"/>
<text text-anchor="middle" x="-13" y="-33.8" font-family="Times,serif" font-size="14.00">ApplicationController</text>
<polyline fill="none" stroke="black" points="-111.966,-27 85.9658,-27 "/>
<text text-anchor="start" x="-103.966" y="-11.8" font-family="Times,serif" font-size="14.00">authenticate_admin_user!</text>
<text text-anchor="start" x="-103.966" y="2.2" font-family="Times,serif" font-size="14.00">configure_permitted_parameters</text>
<polyline fill="none" stroke="black" points="-111.966,9 85.9658,9 "/>
<polyline fill="none" stroke="black" points="-111.966,33 85.9658,33 "/>
<text text-anchor="start" x="-103.966" y="48.2" font-family="Times,serif" font-size="14.00">_layout</text>
</g>
<!-- BooksController -->
<g id="node3" class="node"><title>BooksController</title>
<path fill="none" stroke="black" d="M236.334,251C236.334,251 321.666,251 321.666,251 327.666,251 333.666,245 333.666,239 333.666,239 333.666,159 333.666,159 333.666,153 327.666,147 321.666,147 321.666,147 236.334,147 236.334,147 230.334,147 224.334,153 224.334,159 224.334,159 224.334,239 224.334,239 224.334,245 230.334,251 236.334,251"/>
<text text-anchor="middle" x="279" y="162.2" font-family="Times,serif" font-size="14.00">BooksController</text>
<polyline fill="none" stroke="black" points="224.334,169 333.666,169 "/>
<text text-anchor="start" x="232.334" y="184.2" font-family="Times,serif" font-size="14.00">index</text>
<text text-anchor="start" x="232.334" y="198.2" font-family="Times,serif" font-size="14.00">show</text>
<polyline fill="none" stroke="black" points="224.334,205 333.666,205 "/>
<polyline fill="none" stroke="black" points="224.334,229 333.666,229 "/>
<text text-anchor="start" x="232.334" y="244.2" font-family="Times,serif" font-size="14.00">_layout</text>
</g>
<!-- BuyingsController -->
<g id="node4" class="node"><title>BuyingsController</title>
<path fill="none" stroke="black" d="M-212.424,223C-212.424,223 -111.576,223 -111.576,223 -105.576,223 -99.5757,217 -99.5757,211 -99.5757,211 -99.5757,103 -99.5757,103 -99.5757,97 -105.576,91 -111.576,91 -111.576,91 -212.424,91 -212.424,91 -218.424,91 -224.424,97 -224.424,103 -224.424,103 -224.424,211 -224.424,211 -224.424,217 -218.424,223 -212.424,223"/>
<text text-anchor="middle" x="-162" y="106.2" font-family="Times,serif" font-size="14.00">BuyingsController</text>
<polyline fill="none" stroke="black" points="-224.424,113 -99.5757,113 "/>
<text text-anchor="start" x="-216.424" y="128.2" font-family="Times,serif" font-size="14.00">new</text>
<text text-anchor="start" x="-216.424" y="142.2" font-family="Times,serif" font-size="14.00">show</text>
<text text-anchor="start" x="-216.424" y="156.2" font-family="Times,serif" font-size="14.00">user_detail_params</text>
<text text-anchor="start" x="-216.424" y="170.2" font-family="Times,serif" font-size="14.00">user_params</text>
<polyline fill="none" stroke="black" points="-224.424,177 -99.5757,177 "/>
<polyline fill="none" stroke="black" points="-224.424,201 -99.5757,201 "/>
<text text-anchor="start" x="-216.424" y="216.2" font-family="Times,serif" font-size="14.00">_layout</text>
</g>
<!-- OrdersController -->
<g id="node5" class="node"><title>OrdersController</title>
<path fill="none" stroke="black" d="M264.179,13C264.179,13 351.821,13 351.821,13 357.821,13 363.821,7 363.821,1 363.821,1 363.821,-67 363.821,-67 363.821,-73 357.821,-79 351.821,-79 351.821,-79 264.179,-79 264.179,-79 258.179,-79 252.179,-73 252.179,-67 252.179,-67 252.179,1 252.179,1 252.179,7 258.179,13 264.179,13"/>
<text text-anchor="middle" x="308" y="-63.8" font-family="Times,serif" font-size="14.00">OrdersController</text>
<polyline fill="none" stroke="black" points="252.179,-57 363.821,-57 "/>
<polyline fill="none" stroke="black" points="252.179,-33 363.821,-33 "/>
<polyline fill="none" stroke="black" points="252.179,-9 363.821,-9 "/>
<text text-anchor="start" x="260.179" y="6.2" font-family="Times,serif" font-size="14.00">_layout</text>
</g>
<!-- ProfilesController -->
<g id="node6" class="node"><title>ProfilesController</title>
<path fill="none" stroke="black" d="M95.8345,237C95.8345,237 188.166,237 188.166,237 194.166,237 200.166,231 200.166,225 200.166,225 200.166,159 200.166,159 200.166,153 194.166,147 188.166,147 188.166,147 95.8345,147 95.8345,147 89.8345,147 83.8345,153 83.8345,159 83.8345,159 83.8345,225 83.8345,225 83.8345,231 89.8345,237 95.8345,237"/>
<text text-anchor="middle" x="142" y="162.2" font-family="Times,serif" font-size="14.00">ProfilesController</text>
<polyline fill="none" stroke="black" points="83.8345,169 200.166,169 "/>
<text text-anchor="start" x="91.8345" y="184.2" font-family="Times,serif" font-size="14.00">edit</text>
<polyline fill="none" stroke="black" points="83.8345,191 200.166,191 "/>
<polyline fill="none" stroke="black" points="83.8345,215 200.166,215 "/>
<text text-anchor="start" x="91.8345" y="230.2" font-family="Times,serif" font-size="14.00">_layout</text>
</g>
<!-- SellingsController -->
<g id="node7" class="node"><title>SellingsController</title>
<path fill="none" stroke="black" d="M-58.3311,195C-58.3311,195 36.3311,195 36.3311,195 42.3311,195 48.3311,189 48.3311,183 48.3311,183 48.3311,103 48.3311,103 48.3311,97 42.3311,91 36.3311,91 36.3311,91 -58.3311,91 -58.3311,91 -64.3311,91 -70.3311,97 -70.3311,103 -70.3311,103 -70.3311,183 -70.3311,183 -70.3311,189 -64.3311,195 -58.3311,195"/>
<text text-anchor="middle" x="-11" y="106.2" font-family="Times,serif" font-size="14.00">SellingsController</text>
<polyline fill="none" stroke="black" points="-70.3311,113 48.3311,113 "/>
<text text-anchor="start" x="-62.3311" y="128.2" font-family="Times,serif" font-size="14.00">new</text>
<text text-anchor="start" x="-62.3311" y="142.2" font-family="Times,serif" font-size="14.00">show</text>
<polyline fill="none" stroke="black" points="-70.3311,149 48.3311,149 "/>
<polyline fill="none" stroke="black" points="-70.3311,173 48.3311,173 "/>
<text text-anchor="start" x="-62.3311" y="188.2" font-family="Times,serif" font-size="14.00">_layout</text>
</g>
<!-- TagsController -->
<g id="node8" class="node"><title>TagsController</title>
<path fill="none" stroke="black" d="M-225.891,-239C-225.891,-239 -150.109,-239 -150.109,-239 -144.109,-239 -138.109,-245 -138.109,-251 -138.109,-251 -138.109,-317 -138.109,-317 -138.109,-323 -144.109,-329 -150.109,-329 -150.109,-329 -225.891,-329 -225.891,-329 -231.891,-329 -237.891,-323 -237.891,-317 -237.891,-317 -237.891,-251 -237.891,-251 -237.891,-245 -231.891,-239 -225.891,-239"/>
<text text-anchor="middle" x="-188" y="-313.8" font-family="Times,serif" font-size="14.00">TagsController</text>
<polyline fill="none" stroke="black" points="-237.891,-307 -138.109,-307 "/>
<text text-anchor="start" x="-229.891" y="-291.8" font-family="Times,serif" font-size="14.00">show</text>
<polyline fill="none" stroke="black" points="-237.891,-285 -138.109,-285 "/>
<polyline fill="none" stroke="black" points="-237.891,-261 -138.109,-261 "/>
<text text-anchor="start" x="-229.891" y="-245.8" font-family="Times,serif" font-size="14.00">_layout</text>
</g>
<!-- UserDetailsController -->
<g id="node9" class="node"><title>UserDetailsController</title>
<path fill="none" stroke="black" d="M96.1826,-85C96.1826,-85 211.817,-85 211.817,-85 217.817,-85 223.817,-91 223.817,-97 223.817,-97 223.817,-219 223.817,-219 223.817,-225 217.817,-231 211.817,-231 211.817,-231 96.1826,-231 96.1826,-231 90.1826,-231 84.1826,-225 84.1826,-219 84.1826,-219 84.1826,-97 84.1826,-97 84.1826,-91 90.1826,-85 96.1826,-85"/>
<text text-anchor="middle" x="154" y="-215.8" font-family="Times,serif" font-size="14.00">UserDetailsController</text>
<polyline fill="none" stroke="black" points="84.1826,-209 223.817,-209 "/>
<text text-anchor="start" x="92.1826" y="-193.8" font-family="Times,serif" font-size="14.00">destroy</text>
<text text-anchor="start" x="92.1826" y="-179.8" font-family="Times,serif" font-size="14.00">edit</text>
<text text-anchor="start" x="92.1826" y="-165.8" font-family="Times,serif" font-size="14.00">new</text>
<text text-anchor="start" x="92.1826" y="-151.8" font-family="Times,serif" font-size="14.00">update</text>
<polyline fill="none" stroke="black" points="84.1826,-145 223.817,-145 "/>
<polyline fill="none" stroke="black" points="84.1826,-121 223.817,-121 "/>
<text text-anchor="start" x="92.1826" y="-105.8" font-family="Times,serif" font-size="14.00">_layout</text>
<text text-anchor="start" x="92.1826" y="-91.8" font-family="Times,serif" font-size="14.00">user_details_params</text>
</g>
<!-- Users::SessionsController -->
<g id="node10" class="node"><title>Users::SessionsController</title>
<path fill="none" stroke="black" d="M-99.7207,-113C-99.7207,-113 37.7207,-113 37.7207,-113 43.7207,-113 49.7207,-119 49.7207,-125 49.7207,-125 49.7207,-205 49.7207,-205 49.7207,-211 43.7207,-217 37.7207,-217 37.7207,-217 -99.7207,-217 -99.7207,-217 -105.721,-217 -111.721,-211 -111.721,-205 -111.721,-205 -111.721,-125 -111.721,-125 -111.721,-119 -105.721,-113 -99.7207,-113"/>
<text text-anchor="middle" x="-31" y="-201.8" font-family="Times,serif" font-size="14.00">Users::SessionsController</text>
<polyline fill="none" stroke="black" points="-111.721,-195 49.7207,-195 "/>
<text text-anchor="start" x="-103.721" y="-179.8" font-family="Times,serif" font-size="14.00">create</text>
<text text-anchor="start" x="-103.721" y="-165.8" font-family="Times,serif" font-size="14.00">new</text>
<polyline fill="none" stroke="black" points="-111.721,-159 49.7207,-159 "/>
<polyline fill="none" stroke="black" points="-111.721,-135 49.7207,-135 "/>
<text text-anchor="start" x="-103.721" y="-119.8" font-family="Times,serif" font-size="14.00">_layout</text>
</g>
<!-- UsersController -->
<g id="node11" class="node"><title>UsersController</title>
<path fill="none" stroke="black" d="M264.286,-113C264.286,-113 345.714,-113 345.714,-113 351.714,-113 357.714,-119 357.714,-125 357.714,-125 357.714,-193 357.714,-193 357.714,-199 351.714,-205 345.714,-205 345.714,-205 264.286,-205 264.286,-205 258.286,-205 252.286,-199 252.286,-193 252.286,-193 252.286,-125 252.286,-125 252.286,-119 258.286,-113 264.286,-113"/>
<text text-anchor="middle" x="305" y="-189.8" font-family="Times,serif" font-size="14.00">UsersController</text>
<polyline fill="none" stroke="black" points="252.286,-183 357.714,-183 "/>
<polyline fill="none" stroke="black" points="252.286,-159 357.714,-159 "/>
<polyline fill="none" stroke="black" points="252.286,-135 357.714,-135 "/>
<text text-anchor="start" x="260.286" y="-119.8" font-family="Times,serif" font-size="14.00">_layout</text>
</g>
</g>
</svg>
