<?xml version="1.0" encoding="UTF-8" standalone="no"?>
<!DOCTYPE svg PUBLIC "-//W3C//DTD SVG 1.1//EN"
 "http://www.w3.org/Graphics/SVG/1.1/DTD/svg11.dtd">
<!-- Generated by graphviz version 2.38.0 (20140413.2041)
 -->
<!-- Title: controllers_diagram Pages: 1 -->
<svg width="553pt" height="593pt"
 viewBox="0.00 0.00 552.53 593.00" xmlns="http://www.w3.org/2000/svg" xmlns:xlink="http://www.w3.org/1999/xlink">
<g id="graph0" class="graph" transform="scale(1 1) rotate(0) translate(244.107 349.5)">
<title>controllers_diagram</title>
<polygon fill="none" stroke="none" points="-244.107,243.5 -244.107,-349.5 308.424,-349.5 308.424,243.5 -244.107,243.5"/>
<!-- _diagram_info -->
<g id="node1" class="node"><title>_diagram_info</title>
<text text-anchor="start" x="83.3123" y="-134.1" font-family="Times,serif" font-size="13.00">Controllers diagram</text>
<text text-anchor="start" x="83.3123" y="-121.1" font-family="Times,serif" font-size="13.00">Date: Sep 03 2016 &#45; 13:12</text>
<text text-anchor="start" x="83.3123" y="-108.1" font-family="Times,serif" font-size="13.00">Migration version: 20160903041026</text>
<text text-anchor="start" x="83.3123" y="-95.1" font-family="Times,serif" font-size="13.00">Generated by RailRoady 1.5.1</text>
<text text-anchor="start" x="83.3123" y="-82.1" font-family="Times,serif" font-size="13.00">http://railroady.prestonlee.com</text>
</g>
<!-- ApplicationController -->
<g id="node2" class="node"><title>ApplicationController</title>
<path fill="none" stroke="black" d="M-92.9658,59C-92.9658,59 80.9658,59 80.9658,59 86.9658,59 92.9658,53 92.9658,47 92.9658,47 92.9658,-33 92.9658,-33 92.9658,-39 86.9658,-45 80.9658,-45 80.9658,-45 -92.9658,-45 -92.9658,-45 -98.9658,-45 -104.966,-39 -104.966,-33 -104.966,-33 -104.966,47 -104.966,47 -104.966,53 -98.9658,59 -92.9658,59"/>
<text text-anchor="middle" x="-6" y="-29.8" font-family="Times,serif" font-size="14.00">ApplicationController</text>
<polyline fill="none" stroke="black" points="-104.966,-23 92.9658,-23 "/>
<text text-anchor="start" x="-96.9658" y="-7.8" font-family="Times,serif" font-size="14.00">authenticate_admin_user!</text>
<text text-anchor="start" x="-96.9658" y="6.2" font-family="Times,serif" font-size="14.00">configure_permitted_parameters</text>
<polyline fill="none" stroke="black" points="-104.966,13 92.9658,13 "/>
<polyline fill="none" stroke="black" points="-104.966,37 92.9658,37 "/>
<text text-anchor="start" x="-96.9658" y="52.2" font-family="Times,serif" font-size="14.00">_layout</text>
</g>
<!-- BuyingsController -->
<g id="node3" class="node"><title>BuyingsController</title>
<path fill="none" stroke="black" d="M191.576,-181C191.576,-181 292.424,-181 292.424,-181 298.424,-181 304.424,-187 304.424,-193 304.424,-193 304.424,-301 304.424,-301 304.424,-307 298.424,-313 292.424,-313 292.424,-313 191.576,-313 191.576,-313 185.576,-313 179.576,-307 179.576,-301 179.576,-301 179.576,-193 179.576,-193 179.576,-187 185.576,-181 191.576,-181"/>
<text text-anchor="middle" x="242" y="-297.8" font-family="Times,serif" font-size="14.00">BuyingsController</text>
<polyline fill="none" stroke="black" points="179.576,-291 304.424,-291 "/>
<text text-anchor="start" x="187.576" y="-275.8" font-family="Times,serif" font-size="14.00">new</text>
<text text-anchor="start" x="187.576" y="-261.8" font-family="Times,serif" font-size="14.00">show</text>
<text text-anchor="start" x="187.576" y="-247.8" font-family="Times,serif" font-size="14.00">user_detail_params</text>
<text text-anchor="start" x="187.576" y="-233.8" font-family="Times,serif" font-size="14.00">user_params</text>
<polyline fill="none" stroke="black" points="179.576,-227 304.424,-227 "/>
<polyline fill="none" stroke="black" points="179.576,-203 304.424,-203 "/>
<text text-anchor="start" x="187.576" y="-187.8" font-family="Times,serif" font-size="14.00">_layout</text>
</g>
<!-- ExhibitsController -->
<g id="node4" class="node"><title>ExhibitsController</title>
<path fill="none" stroke="black" d="M-228.107,-241C-228.107,-241 -131.893,-241 -131.893,-241 -125.893,-241 -119.893,-247 -119.893,-253 -119.893,-253 -119.893,-333 -119.893,-333 -119.893,-339 -125.893,-345 -131.893,-345 -131.893,-345 -228.107,-345 -228.107,-345 -234.107,-345 -240.107,-339 -240.107,-333 -240.107,-333 -240.107,-253 -240.107,-253 -240.107,-247 -234.107,-241 -228.107,-241"/>
<text text-anchor="middle" x="-180" y="-329.8" font-family="Times,serif" font-size="14.00">ExhibitsController</text>
<polyline fill="none" stroke="black" points="-240.107,-323 -119.893,-323 "/>
<text text-anchor="start" x="-232.107" y="-307.8" font-family="Times,serif" font-size="14.00">index</text>
<text text-anchor="start" x="-232.107" y="-293.8" font-family="Times,serif" font-size="14.00">show</text>
<polyline fill="none" stroke="black" points="-240.107,-287 -119.893,-287 "/>
<polyline fill="none" stroke="black" points="-240.107,-263 -119.893,-263 "/>
<text text-anchor="start" x="-232.107" y="-247.8" font-family="Times,serif" font-size="14.00">_layout</text>
</g>
<!-- ProfilesController -->
<g id="node5" class="node"><title>ProfilesController</title>
<path fill="none" stroke="black" d="M11.8345,239C11.8345,239 104.166,239 104.166,239 110.166,239 116.166,233 116.166,227 116.166,227 116.166,161 116.166,161 116.166,155 110.166,149 104.166,149 104.166,149 11.8345,149 11.8345,149 5.83447,149 -0.165527,155 -0.165527,161 -0.165527,161 -0.165527,227 -0.165527,227 -0.165527,233 5.83447,239 11.8345,239"/>
<text text-anchor="middle" x="58" y="164.2" font-family="Times,serif" font-size="14.00">ProfilesController</text>
<polyline fill="none" stroke="black" points="-0.165527,171 116.166,171 "/>
<text text-anchor="start" x="7.83447" y="186.2" font-family="Times,serif" font-size="14.00">edit</text>
<polyline fill="none" stroke="black" points="-0.165527,193 116.166,193 "/>
<polyline fill="none" stroke="black" points="-0.165527,217 116.166,217 "/>
<text text-anchor="start" x="7.83447" y="232.2" font-family="Times,serif" font-size="14.00">_layout</text>
</g>
<!-- UserDetailsController -->
<g id="node6" class="node"><title>UserDetailsController</title>
<path fill="none" stroke="black" d="M-167.817,179C-167.817,179 -52.1826,179 -52.1826,179 -46.1826,179 -40.1826,173 -40.1826,167 -40.1826,167 -40.1826,99 -40.1826,99 -40.1826,93 -46.1826,87 -52.1826,87 -52.1826,87 -167.817,87 -167.817,87 -173.817,87 -179.817,93 -179.817,99 -179.817,99 -179.817,167 -179.817,167 -179.817,173 -173.817,179 -167.817,179"/>
<text text-anchor="middle" x="-110" y="102.2" font-family="Times,serif" font-size="14.00">UserDetailsController</text>
<polyline fill="none" stroke="black" points="-179.817,109 -40.1826,109 "/>
<polyline fill="none" stroke="black" points="-179.817,133 -40.1826,133 "/>
<polyline fill="none" stroke="black" points="-179.817,157 -40.1826,157 "/>
<text text-anchor="start" x="-171.817" y="172.2" font-family="Times,serif" font-size="14.00">_layout</text>
</g>
<!-- Users::SessionsController -->
<g id="node7" class="node"><title>Users::SessionsController</title>
<path fill="none" stroke="black" d="M132.279,119C132.279,119 269.721,119 269.721,119 275.721,119 281.721,113 281.721,107 281.721,107 281.721,27 281.721,27 281.721,21 275.721,15 269.721,15 269.721,15 132.279,15 132.279,15 126.279,15 120.279,21 120.279,27 120.279,27 120.279,107 120.279,107 120.279,113 126.279,119 132.279,119"/>
<text text-anchor="middle" x="201" y="30.2" font-family="Times,serif" font-size="14.00">Users::SessionsController</text>
<polyline fill="none" stroke="black" points="120.279,37 281.721,37 "/>
<text text-anchor="start" x="128.279" y="52.2" font-family="Times,serif" font-size="14.00">create</text>
<text text-anchor="start" x="128.279" y="66.2" font-family="Times,serif" font-size="14.00">new</text>
<polyline fill="none" stroke="black" points="120.279,73 281.721,73 "/>
<polyline fill="none" stroke="black" points="120.279,97 281.721,97 "/>
<text text-anchor="start" x="128.279" y="112.2" font-family="Times,serif" font-size="14.00">_layout</text>
</g>
<!-- UsersController -->
<g id="node8" class="node"><title>UsersController</title>
<path fill="none" stroke="black" d="M-78.1484,-91C-78.1484,-91 28.1484,-91 28.1484,-91 34.1484,-91 40.1484,-97 40.1484,-103 40.1484,-103 40.1484,-225 40.1484,-225 40.1484,-231 34.1484,-237 28.1484,-237 28.1484,-237 -78.1484,-237 -78.1484,-237 -84.1484,-237 -90.1484,-231 -90.1484,-225 -90.1484,-225 -90.1484,-103 -90.1484,-103 -90.1484,-97 -84.1484,-91 -78.1484,-91"/>
<text text-anchor="middle" x="-25" y="-221.8" font-family="Times,serif" font-size="14.00">UsersController</text>
<polyline fill="none" stroke="black" points="-90.1484,-215 40.1484,-215 "/>
<text text-anchor="start" x="-82.1484" y="-199.8" font-family="Times,serif" font-size="14.00">destroy</text>
<text text-anchor="start" x="-82.1484" y="-185.8" font-family="Times,serif" font-size="14.00">edit</text>
<text text-anchor="start" x="-82.1484" y="-171.8" font-family="Times,serif" font-size="14.00">new</text>
<text text-anchor="start" x="-82.1484" y="-157.8" font-family="Times,serif" font-size="14.00">update</text>
<polyline fill="none" stroke="black" points="-90.1484,-151 40.1484,-151 "/>
<polyline fill="none" stroke="black" points="-90.1484,-127 40.1484,-127 "/>
<text text-anchor="start" x="-82.1484" y="-111.8" font-family="Times,serif" font-size="14.00">_layout</text>
<text text-anchor="start" x="-82.1484" y="-97.8" font-family="Times,serif" font-size="14.00">user_details_params</text>
</g>
</g>
</svg>
