<?xml version="1.0" encoding="UTF-8" standalone="no"?>
<!DOCTYPE svg PUBLIC "-//W3C//DTD SVG 1.1//EN"
 "http://www.w3.org/Graphics/SVG/1.1/DTD/svg11.dtd">
<!-- Generated by graphviz version 2.38.0 (20140413.2041)
 -->
<!-- Title: models_diagram Pages: 1 -->
<svg width="440pt" height="225pt"
 viewBox="0.00 0.00 440.10 225.00" xmlns="http://www.w3.org/2000/svg" xmlns:xlink="http://www.w3.org/1999/xlink">
<g id="graph0" class="graph" transform="scale(1 1) rotate(0) translate(4 221)">
<title>models_diagram</title>
<polygon fill="none" stroke="none" points="-4,4 -4,-221 436.1,-221 436.1,4 -4,4"/>
<!-- _diagram_info -->
<g id="node1" class="node"><title>_diagram_info</title>
<text text-anchor="start" x="8" y="-202.6" font-family="Times,serif" font-size="13.00">Models diagram</text>
<text text-anchor="start" x="8" y="-189.6" font-family="Times,serif" font-size="13.00">Date: Sep 03 2016 &#45; 13:12</text>
<text text-anchor="start" x="8" y="-176.6" font-family="Times,serif" font-size="13.00">Migration version: 20160903041026</text>
<text text-anchor="start" x="8" y="-163.6" font-family="Times,serif" font-size="13.00">Generated by RailRoady 1.5.1</text>
<text text-anchor="start" x="8" y="-150.6" font-family="Times,serif" font-size="13.00">http://railroady.prestonlee.com</text>
</g>
<!-- Buying -->
<g id="node2" class="node"><title>Buying</title>
<ellipse fill="none" stroke="black" cx="157.688" cy="-90" rx="36.2992" ry="18"/>
<text text-anchor="middle" x="157.688" y="-85.8" font-family="Times,serif" font-size="14.00">Buying</text>
</g>
<!-- Exhibit -->
<g id="node4" class="node"><title>Exhibit</title>
<ellipse fill="none" stroke="black" cx="189.688" cy="-18" rx="36.2905" ry="18"/>
<text text-anchor="middle" x="189.688" y="-13.8" font-family="Times,serif" font-size="14.00">Exhibit</text>
</g>
<!-- Buying&#45;&gt;Exhibit -->
<g id="edge1" class="edge"><title>Buying&#45;&gt;Exhibit</title>
<path fill="none" stroke="#640f59" d="M168.79,-64.7144C171.994,-57.7051 175.488,-50.0612 178.686,-43.0653"/>
<ellipse fill="none" stroke="#640f59" cx="167.097" cy="-68.4171" rx="4.00002" ry="4.00002"/>
<ellipse fill="#640f59" stroke="#640f59" cx="180.35" cy="-39.4269" rx="4.00002" ry="4.00002"/>
</g>
<!-- Category -->
<g id="node3" class="node"><title>Category</title>
<ellipse fill="none" stroke="black" cx="340.688" cy="-180.5" rx="42.5456" ry="18"/>
<text text-anchor="middle" x="340.688" y="-176.3" font-family="Times,serif" font-size="14.00">Category</text>
</g>
<!-- Profile -->
<g id="node5" class="node"><title>Profile</title>
<ellipse fill="none" stroke="black" cx="283.688" cy="-90" rx="33.8857" ry="18"/>
<text text-anchor="middle" x="283.688" y="-85.8" font-family="Times,serif" font-size="14.00">Profile</text>
</g>
<!-- User -->
<g id="node6" class="node"><title>User</title>
<ellipse fill="none" stroke="black" cx="252.688" cy="-180.5" rx="27" ry="18"/>
<text text-anchor="middle" x="252.688" y="-176.3" font-family="Times,serif" font-size="14.00">User</text>
</g>
<!-- User&#45;&gt;Buying -->
<g id="edge3" class="edge"><title>User&#45;&gt;Buying</title>
<path fill="none" stroke="#db0f9a" d="M232.654,-159.419C227.498,-154.34 221.925,-148.929 216.688,-144 205.662,-133.622 193.222,-122.38 182.617,-112.932"/>
<ellipse fill="none" stroke="#db0f9a" cx="235.63" cy="-162.365" rx="4.00002" ry="4.00002"/>
<polygon fill="#db0f9a" stroke="#db0f9a" points="182.398,-112.738 177.906,-102.734 178.658,-109.419 174.919,-106.1 174.919,-106.1 174.919,-106.1 178.658,-109.419 171.932,-109.466 182.398,-112.738 182.398,-112.738"/>
</g>
<!-- User&#45;&gt;Exhibit -->
<g id="edge2" class="edge"><title>User&#45;&gt;Exhibit</title>
<path fill="none" stroke="#255430" d="M243.116,-155.115C231.486,-125.487 211.942,-75.6942 199.991,-45.2484"/>
<ellipse fill="none" stroke="#255430" cx="244.721" cy="-159.205" rx="4.00001" ry="4.00001"/>
<polygon fill="#255430" stroke="#255430" points="199.905,-45.0307 200.44,-34.0779 198.079,-40.3764 196.252,-35.7221 196.252,-35.7221 196.252,-35.7221 198.079,-40.3764 192.063,-37.3664 199.905,-45.0307 199.905,-45.0307"/>
</g>
<!-- User&#45;&gt;Profile -->
<g id="edge5" class="edge"><title>User&#45;&gt;Profile</title>
<path fill="none" stroke="#f20c14" d="M261.278,-154.976C265.339,-143.383 270.196,-129.518 274.348,-117.664"/>
<ellipse fill="none" stroke="#f20c14" cx="259.841" cy="-159.079" rx="4.00001" ry="4.00001"/>
<polygon fill="#f20c14" stroke="#f20c14" points="274.472,-117.31 282.025,-109.36 276.125,-112.591 277.778,-107.872 277.778,-107.872 277.778,-107.872 276.125,-112.591 273.531,-106.385 274.472,-117.31 274.472,-117.31"/>
</g>
<!-- UserDetail -->
<g id="node7" class="node"><title>UserDetail</title>
<ellipse fill="none" stroke="black" cx="383.688" cy="-90" rx="48.3255" ry="18"/>
<text text-anchor="middle" x="383.688" y="-85.8" font-family="Times,serif" font-size="14.00">UserDetail</text>
</g>
<!-- User&#45;&gt;UserDetail -->
<g id="edge4" class="edge"><title>User&#45;&gt;UserDetail</title>
<path fill="none" stroke="#34e3d6" d="M271.734,-158.835C276.974,-153.688 282.834,-148.392 288.688,-144 306.313,-130.777 327.603,-118.599 345.558,-109.26"/>
<ellipse fill="none" stroke="#34e3d6" cx="268.713" cy="-161.896" rx="4.00002" ry="4.00002"/>
<polygon fill="#34e3d6" stroke="#34e3d6" points="345.698,-109.188 356.651,-108.653 350.152,-106.916 354.606,-104.644 354.606,-104.644 354.606,-104.644 350.152,-106.916 352.561,-100.636 345.698,-109.188 345.698,-109.188"/>
</g>
</g>
</svg>
