<?xml version="1.0" encoding="UTF-8" standalone="no"?>
<!DOCTYPE svg PUBLIC "-//W3C//DTD SVG 1.1//EN"
 "http://www.w3.org/Graphics/SVG/1.1/DTD/svg11.dtd">
<!-- Generated by graphviz version 2.38.0 (20140413.2041)
 -->
<!-- Title: models_diagram Pages: 1 -->
<svg width="623pt" height="747pt"
 viewBox="0.00 0.00 622.58 747.00" xmlns="http://www.w3.org/2000/svg" xmlns:xlink="http://www.w3.org/1999/xlink">
<g id="graph0" class="graph" transform="scale(1 1) rotate(0) translate(4 743)">
<title>models_diagram</title>
<polygon fill="none" stroke="none" points="-4,4 -4,-743 618.579,-743 618.579,4 -4,4"/>
<!-- _diagram_info -->
<g id="node1" class="node"><title>_diagram_info</title>
<text text-anchor="start" x="8" y="-612.6" font-family="Times,serif" font-size="13.00">Models diagram</text>
<text text-anchor="start" x="8" y="-599.6" font-family="Times,serif" font-size="13.00">Date: Sep 03 2016 &#45; 13:11</text>
<text text-anchor="start" x="8" y="-586.6" font-family="Times,serif" font-size="13.00">Migration version: 20160903041026</text>
<text text-anchor="start" x="8" y="-573.6" font-family="Times,serif" font-size="13.00">Generated by RailRoady 1.5.1</text>
<text text-anchor="start" x="8" y="-560.6" font-family="Times,serif" font-size="13.00">http://railroady.prestonlee.com</text>
</g>
<!-- Buying -->
<g id="node2" class="node"><title>Buying</title>
<path fill="none" stroke="black" d="M138.182,-277.5C138.182,-277.5 247.193,-277.5 247.193,-277.5 253.193,-277.5 259.193,-283.5 259.193,-289.5 259.193,-289.5 259.193,-365.5 259.193,-365.5 259.193,-371.5 253.193,-377.5 247.193,-377.5 247.193,-377.5 138.182,-377.5 138.182,-377.5 132.182,-377.5 126.182,-371.5 126.182,-365.5 126.182,-365.5 126.182,-289.5 126.182,-289.5 126.182,-283.5 132.182,-277.5 138.182,-277.5"/>
<text text-anchor="middle" x="192.688" y="-362.3" font-family="Times,serif" font-size="14.00">Buying</text>
<polyline fill="none" stroke="black" points="126.182,-355.5 259.193,-355.5 "/>
<text text-anchor="start" x="134.182" y="-340.3" font-family="Times,serif" font-size="14.00">id :int(11)</text>
<text text-anchor="start" x="134.182" y="-326.3" font-family="Times,serif" font-size="14.00">created_at :datetime</text>
<text text-anchor="start" x="134.182" y="-312.3" font-family="Times,serif" font-size="14.00">updated_at :datetime</text>
<text text-anchor="start" x="134.182" y="-298.3" font-family="Times,serif" font-size="14.00">user_id :int(11)</text>
<text text-anchor="start" x="134.182" y="-284.3" font-family="Times,serif" font-size="14.00">profile_id :int(11)</text>
</g>
<!-- Exhibit -->
<g id="node4" class="node"><title>Exhibit</title>
<path fill="none" stroke="black" d="M179.738,-0.5C179.738,-0.5 299.638,-0.5 299.638,-0.5 305.638,-0.5 311.638,-6.5 311.638,-12.5 311.638,-12.5 311.638,-200.5 311.638,-200.5 311.638,-206.5 305.638,-212.5 299.638,-212.5 299.638,-212.5 179.738,-212.5 179.738,-212.5 173.738,-212.5 167.738,-206.5 167.738,-200.5 167.738,-200.5 167.738,-12.5 167.738,-12.5 167.738,-6.5 173.738,-0.5 179.738,-0.5"/>
<text text-anchor="middle" x="239.688" y="-197.3" font-family="Times,serif" font-size="14.00">Exhibit</text>
<polyline fill="none" stroke="black" points="167.738,-190.5 311.638,-190.5 "/>
<text text-anchor="start" x="175.738" y="-175.3" font-family="Times,serif" font-size="14.00">content :text</text>
<text text-anchor="start" x="175.738" y="-161.3" font-family="Times,serif" font-size="14.00">created_at :datetime</text>
<text text-anchor="start" x="175.738" y="-147.3" font-family="Times,serif" font-size="14.00">updated_at :datetime</text>
<text text-anchor="start" x="175.738" y="-133.3" font-family="Times,serif" font-size="14.00">user_id :int(11)</text>
<text text-anchor="start" x="175.738" y="-119.3" font-family="Times,serif" font-size="14.00">buying_id :int(11)</text>
<text text-anchor="start" x="175.738" y="-105.3" font-family="Times,serif" font-size="14.00">category_id :int(11)</text>
<text text-anchor="start" x="175.738" y="-91.3" font-family="Times,serif" font-size="14.00">profiles_id :int(11)</text>
<text text-anchor="start" x="175.738" y="-77.3" font-family="Times,serif" font-size="14.00">title :varchar(255)</text>
<text text-anchor="start" x="175.738" y="-63.3" font-family="Times,serif" font-size="14.00">sub_title :varchar(255)</text>
<text text-anchor="start" x="175.738" y="-49.3" font-family="Times,serif" font-size="14.00">price :int(11)</text>
<text text-anchor="start" x="175.738" y="-35.3" font-family="Times,serif" font-size="14.00">state :int(11)</text>
<text text-anchor="start" x="175.738" y="-21.3" font-family="Times,serif" font-size="14.00">discription :text</text>
<text text-anchor="start" x="175.738" y="-7.3" font-family="Times,serif" font-size="14.00">id :int(11)</text>
</g>
<!-- Buying&#45;&gt;Exhibit -->
<g id="edge1" class="edge"><title>Buying&#45;&gt;Exhibit</title>
<path fill="none" stroke="#1fbb53" d="M205.014,-269.063C208.201,-254.217 211.744,-237.706 215.314,-221.071"/>
<ellipse fill="none" stroke="#1fbb53" cx="204.075" cy="-273.441" rx="4.00001" ry="4.00001"/>
<ellipse fill="#1fbb53" stroke="#1fbb53" cx="216.228" cy="-216.812" rx="4.00001" ry="4.00001"/>
</g>
<!-- Category -->
<g id="node3" class="node"><title>Category</title>
<path fill="none" stroke="black" d="M476.182,-533.5C476.182,-533.5 585.193,-533.5 585.193,-533.5 591.193,-533.5 597.193,-539.5 597.193,-545.5 597.193,-545.5 597.193,-635.5 597.193,-635.5 597.193,-641.5 591.193,-647.5 585.193,-647.5 585.193,-647.5 476.182,-647.5 476.182,-647.5 470.182,-647.5 464.182,-641.5 464.182,-635.5 464.182,-635.5 464.182,-545.5 464.182,-545.5 464.182,-539.5 470.182,-533.5 476.182,-533.5"/>
<text text-anchor="middle" x="530.688" y="-632.3" font-family="Times,serif" font-size="14.00">Category</text>
<polyline fill="none" stroke="black" points="464.182,-625.5 597.193,-625.5 "/>
<text text-anchor="start" x="472.182" y="-610.3" font-family="Times,serif" font-size="14.00">id :int(11)</text>
<text text-anchor="start" x="472.182" y="-596.3" font-family="Times,serif" font-size="14.00">created_at :datetime</text>
<text text-anchor="start" x="472.182" y="-582.3" font-family="Times,serif" font-size="14.00">updated_at :datetime</text>
<text text-anchor="start" x="472.182" y="-568.3" font-family="Times,serif" font-size="14.00">langage :int(11)</text>
<text text-anchor="start" x="472.182" y="-554.3" font-family="Times,serif" font-size="14.00">design :int(11)</text>
<text text-anchor="start" x="472.182" y="-540.3" font-family="Times,serif" font-size="14.00">other :int(11)</text>
</g>
<!-- Profile -->
<g id="node5" class="node"><title>Profile</title>
<path fill="none" stroke="black" d="M328.182,-284.5C328.182,-284.5 437.193,-284.5 437.193,-284.5 443.193,-284.5 449.193,-290.5 449.193,-296.5 449.193,-296.5 449.193,-358.5 449.193,-358.5 449.193,-364.5 443.193,-370.5 437.193,-370.5 437.193,-370.5 328.182,-370.5 328.182,-370.5 322.182,-370.5 316.182,-364.5 316.182,-358.5 316.182,-358.5 316.182,-296.5 316.182,-296.5 316.182,-290.5 322.182,-284.5 328.182,-284.5"/>
<text text-anchor="middle" x="382.688" y="-355.3" font-family="Times,serif" font-size="14.00">Profile</text>
<polyline fill="none" stroke="black" points="316.182,-348.5 449.193,-348.5 "/>
<text text-anchor="start" x="324.182" y="-333.3" font-family="Times,serif" font-size="14.00">id :int(11)</text>
<text text-anchor="start" x="324.182" y="-319.3" font-family="Times,serif" font-size="14.00">created_at :datetime</text>
<text text-anchor="start" x="324.182" y="-305.3" font-family="Times,serif" font-size="14.00">updated_at :datetime</text>
<text text-anchor="start" x="324.182" y="-291.3" font-family="Times,serif" font-size="14.00">user_id :int(11)</text>
</g>
<!-- User -->
<g id="node6" class="node"><title>User</title>
<path fill="none" stroke="black" d="M237.641,-442.5C237.641,-442.5 433.735,-442.5 433.735,-442.5 439.735,-442.5 445.735,-448.5 445.735,-454.5 445.735,-454.5 445.735,-726.5 445.735,-726.5 445.735,-732.5 439.735,-738.5 433.735,-738.5 433.735,-738.5 237.641,-738.5 237.641,-738.5 231.641,-738.5 225.641,-732.5 225.641,-726.5 225.641,-726.5 225.641,-454.5 225.641,-454.5 225.641,-448.5 231.641,-442.5 237.641,-442.5"/>
<text text-anchor="middle" x="335.688" y="-723.3" font-family="Times,serif" font-size="14.00">User</text>
<polyline fill="none" stroke="black" points="225.641,-716.5 445.735,-716.5 "/>
<text text-anchor="start" x="233.641" y="-701.3" font-family="Times,serif" font-size="14.00">updated_at :datetime</text>
<text text-anchor="start" x="233.641" y="-687.3" font-family="Times,serif" font-size="14.00">email :varchar(255)</text>
<text text-anchor="start" x="233.641" y="-673.3" font-family="Times,serif" font-size="14.00">encrypted_password :varchar(255)</text>
<text text-anchor="start" x="233.641" y="-659.3" font-family="Times,serif" font-size="14.00">reset_password_token :varchar(255)</text>
<text text-anchor="start" x="233.641" y="-645.3" font-family="Times,serif" font-size="14.00">reset_password_sent_at :datetime</text>
<text text-anchor="start" x="233.641" y="-631.3" font-family="Times,serif" font-size="14.00">remember_created_at :datetime</text>
<text text-anchor="start" x="233.641" y="-617.3" font-family="Times,serif" font-size="14.00">sign_in_count :int(11)</text>
<text text-anchor="start" x="233.641" y="-603.3" font-family="Times,serif" font-size="14.00">current_sign_in_at :datetime</text>
<text text-anchor="start" x="233.641" y="-589.3" font-family="Times,serif" font-size="14.00">last_sign_in_at :datetime</text>
<text text-anchor="start" x="233.641" y="-575.3" font-family="Times,serif" font-size="14.00">current_sign_in_ip :varchar(255)</text>
<text text-anchor="start" x="233.641" y="-561.3" font-family="Times,serif" font-size="14.00">last_sign_in_ip :varchar(255)</text>
<text text-anchor="start" x="233.641" y="-547.3" font-family="Times,serif" font-size="14.00">pro_img :text</text>
<text text-anchor="start" x="233.641" y="-533.3" font-family="Times,serif" font-size="14.00">image_cache :text</text>
<text text-anchor="start" x="233.641" y="-519.3" font-family="Times,serif" font-size="14.00">confirmation_token :varchar(255)</text>
<text text-anchor="start" x="233.641" y="-505.3" font-family="Times,serif" font-size="14.00">confirmed_at :datetime</text>
<text text-anchor="start" x="233.641" y="-491.3" font-family="Times,serif" font-size="14.00">confirmation_sent_at :datetime</text>
<text text-anchor="start" x="233.641" y="-477.3" font-family="Times,serif" font-size="14.00">unconfirmed_email :varchar(255)</text>
<text text-anchor="start" x="233.641" y="-463.3" font-family="Times,serif" font-size="14.00">created_at :datetime</text>
<text text-anchor="start" x="233.641" y="-449.3" font-family="Times,serif" font-size="14.00">id :int(11)</text>
</g>
<!-- User&#45;&gt;Buying -->
<g id="edge3" class="edge"><title>User&#45;&gt;Buying</title>
<path fill="none" stroke="#343c8b" d="M251.128,-435.163C241.726,-418.003 232.636,-401.413 224.539,-386.633"/>
<ellipse fill="none" stroke="#343c8b" cx="253.072" cy="-438.711" rx="4.00002" ry="4.00002"/>
<polygon fill="#343c8b" stroke="#343c8b" points="224.436,-386.446 223.577,-375.514 222.033,-382.061 219.631,-377.676 219.631,-377.676 219.631,-377.676 222.033,-382.061 215.684,-379.838 224.436,-386.446 224.436,-386.446"/>
</g>
<!-- User&#45;&gt;Exhibit -->
<g id="edge2" class="edge"><title>User&#45;&gt;Exhibit</title>
<path fill="none" stroke="#988f53" d="M305.403,-434.236C293.995,-376.105 280.84,-309.505 268.688,-249 266.966,-240.426 265.174,-231.562 263.365,-222.646"/>
<ellipse fill="none" stroke="#988f53" cx="306.231" cy="-438.455" rx="4.00001" ry="4.00001"/>
<polygon fill="#988f53" stroke="#988f53" points="263.309,-222.37 265.727,-211.674 262.313,-217.47 261.317,-212.57 261.317,-212.57 261.317,-212.57 262.313,-217.47 256.907,-213.466 263.309,-222.37 263.309,-222.37"/>
</g>
<!-- User&#45;&gt;Profile -->
<g id="edge5" class="edge"><title>User&#45;&gt;Profile</title>
<path fill="none" stroke="#e5b2f5" d="M363.644,-434.255C367.097,-415.081 370.416,-396.647 373.289,-380.691"/>
<ellipse fill="none" stroke="#e5b2f5" cx="362.919" cy="-438.282" rx="4.00001" ry="4.00001"/>
<polygon fill="#e5b2f5" stroke="#e5b2f5" points="373.338,-380.423 379.539,-371.379 374.224,-375.502 375.11,-370.581 375.11,-370.581 375.11,-370.581 374.224,-375.502 370.681,-369.784 373.338,-380.423 373.338,-380.423"/>
</g>
<!-- UserDetail -->
<g id="node7" class="node"><title>UserDetail</title>
<path fill="none" stroke="black" d="M478.796,-249.5C478.796,-249.5 602.579,-249.5 602.579,-249.5 608.579,-249.5 614.579,-255.5 614.579,-261.5 614.579,-261.5 614.579,-393.5 614.579,-393.5 614.579,-399.5 608.579,-405.5 602.579,-405.5 602.579,-405.5 478.796,-405.5 478.796,-405.5 472.796,-405.5 466.796,-399.5 466.796,-393.5 466.796,-393.5 466.796,-261.5 466.796,-261.5 466.796,-255.5 472.796,-249.5 478.796,-249.5"/>
<text text-anchor="middle" x="540.688" y="-390.3" font-family="Times,serif" font-size="14.00">UserDetail</text>
<polyline fill="none" stroke="black" points="466.796,-383.5 614.579,-383.5 "/>
<text text-anchor="start" x="474.796" y="-368.3" font-family="Times,serif" font-size="14.00">user_id :int(11)</text>
<text text-anchor="start" x="474.796" y="-354.3" font-family="Times,serif" font-size="14.00">created_at :datetime</text>
<text text-anchor="start" x="474.796" y="-340.3" font-family="Times,serif" font-size="14.00">updated_at :datetime</text>
<text text-anchor="start" x="474.796" y="-326.3" font-family="Times,serif" font-size="14.00">lastname :varchar(255)</text>
<text text-anchor="start" x="474.796" y="-312.3" font-family="Times,serif" font-size="14.00">firstname :varchar(255)</text>
<text text-anchor="start" x="474.796" y="-298.3" font-family="Times,serif" font-size="14.00">postalcode :int(11)</text>
<text text-anchor="start" x="474.796" y="-284.3" font-family="Times,serif" font-size="14.00">callnumber :int(11)</text>
<text text-anchor="start" x="474.796" y="-270.3" font-family="Times,serif" font-size="14.00">place :int(11)</text>
<text text-anchor="start" x="474.796" y="-256.3" font-family="Times,serif" font-size="14.00">id :int(11)</text>
</g>
<!-- User&#45;&gt;UserDetail -->
<g id="edge4" class="edge"><title>User&#45;&gt;UserDetail</title>
<path fill="none" stroke="#516039" d="M450.936,-442.769C458.792,-432.767 466.546,-422.895 474.01,-413.392"/>
<ellipse fill="none" stroke="#516039" cx="448.459" cy="-445.922" rx="4.00002" ry="4.00002"/>
<polygon fill="#516039" stroke="#516039" points="474.031,-413.366 483.747,-408.281 477.119,-409.434 480.208,-405.501 480.208,-405.501 480.208,-405.501 477.119,-409.434 476.669,-402.722 474.031,-413.366 474.031,-413.366"/>
</g>
</g>
</svg>
