<?xml version="1.0" encoding="UTF-8" standalone="no"?>
<!DOCTYPE svg PUBLIC "-//W3C//DTD SVG 1.1//EN"
 "http://www.w3.org/Graphics/SVG/1.1/DTD/svg11.dtd">
<!-- Generated by graphviz version 2.38.0 (20140413.2041)
 -->
<!-- Title: models_diagram Pages: 1 -->
<svg width="486pt" height="225pt"
 viewBox="0.00 0.00 486.10 225.00" xmlns="http://www.w3.org/2000/svg" xmlns:xlink="http://www.w3.org/1999/xlink">
<g id="graph0" class="graph" transform="scale(1 1) rotate(0) translate(4 221)">
<title>models_diagram</title>
<polygon fill="none" stroke="none" points="-4,4 -4,-221 482.1,-221 482.1,4 -4,4"/>
<!-- _diagram_info -->
<g id="node1" class="node"><title>_diagram_info</title>
<text text-anchor="start" x="8" y="-202.6" font-family="Times,serif" font-size="13.00">Models diagram</text>
<text text-anchor="start" x="8" y="-189.6" font-family="Times,serif" font-size="13.00">Date: Sep 04 2016 &#45; 20:01</text>
<text text-anchor="start" x="8" y="-176.6" font-family="Times,serif" font-size="13.00">Migration version: 20160903132236</text>
<text text-anchor="start" x="8" y="-163.6" font-family="Times,serif" font-size="13.00">Generated by RailRoady 1.5.1</text>
<text text-anchor="start" x="8" y="-150.6" font-family="Times,serif" font-size="13.00">http://railroady.prestonlee.com</text>
</g>
<!-- Book -->
<g id="node2" class="node"><title>Book</title>
<ellipse fill="none" stroke="black" cx="254.688" cy="-180.5" rx="29.0429" ry="18"/>
<text text-anchor="middle" x="254.688" y="-176.3" font-family="Times,serif" font-size="14.00">Book</text>
</g>
<!-- Like -->
<g id="node3" class="node"><title>Like</title>
<ellipse fill="none" stroke="black" cx="199.688" cy="-90" rx="27" ry="18"/>
<text text-anchor="middle" x="199.688" y="-85.8" font-family="Times,serif" font-size="14.00">Like</text>
</g>
<!-- Book&#45;&gt;Like -->
<g id="edge3" class="edge"><title>Book&#45;&gt;Like</title>
<path fill="none" stroke="#7a7f45" d="M240.37,-156.462C232.567,-143.905 222.908,-128.364 214.96,-115.575"/>
<ellipse fill="none" stroke="#7a7f45" cx="242.489" cy="-159.87" rx="4.00002" ry="4.00002"/>
<polygon fill="#7a7f45" stroke="#7a7f45" points="214.805,-115.325 213.349,-104.456 212.166,-111.078 209.527,-106.832 209.527,-106.832 209.527,-106.832 212.166,-111.078 205.705,-109.207 214.805,-115.325 214.805,-115.325"/>
</g>
<!-- Order -->
<g id="node4" class="node"><title>Order</title>
<ellipse fill="none" stroke="black" cx="247.688" cy="-18" rx="30.9619" ry="18"/>
<text text-anchor="middle" x="247.688" y="-13.8" font-family="Times,serif" font-size="14.00">Order</text>
</g>
<!-- Book&#45;&gt;Order -->
<g id="edge1" class="edge"><title>Book&#45;&gt;Order</title>
<path fill="none" stroke="#76644c" d="M253.579,-154.079C252.297,-124.675 250.194,-76.4552 248.878,-46.2837"/>
<ellipse fill="none" stroke="#76644c" cx="253.764" cy="-158.327" rx="4" ry="4"/>
<polygon fill="#76644c" stroke="#76644c" points="248.867,-46.0433 252.927,-35.8567 248.649,-41.0481 248.431,-36.0528 248.431,-36.0528 248.431,-36.0528 248.649,-41.0481 243.936,-36.2489 248.867,-46.0433 248.867,-46.0433"/>
</g>
<!-- User -->
<g id="node6" class="node"><title>User</title>
<ellipse fill="none" stroke="black" cx="322.688" cy="-90" rx="27" ry="18"/>
<text text-anchor="middle" x="322.688" y="-85.8" font-family="Times,serif" font-size="14.00">User</text>
</g>
<!-- Book&#45;&gt;User -->
<g id="edge2" class="edge"><title>Book&#45;&gt;User</title>
<path fill="none" stroke="#f5dd25" d="M273.127,-155.502C282.888,-142.798 294.831,-127.255 304.547,-114.61"/>
<polygon fill="#f5dd25" stroke="#f5dd25" points="272.938,-155.748 263.276,-160.936 269.891,-159.713 266.845,-163.678 266.845,-163.678 266.845,-163.678 269.891,-159.713 270.413,-166.42 272.938,-155.748 272.938,-155.748"/>
<polygon fill="#f5dd25" stroke="#f5dd25" points="304.771,-114.318 314.432,-109.13 307.817,-110.353 310.864,-106.389 310.864,-106.389 310.864,-106.389 307.817,-110.353 307.295,-103.647 304.771,-114.318 304.771,-114.318"/>
</g>
<!-- Profile -->
<g id="node5" class="node"><title>Profile</title>
<ellipse fill="none" stroke="black" cx="329.688" cy="-18" rx="33.8857" ry="18"/>
<text text-anchor="middle" x="329.688" y="-13.8" font-family="Times,serif" font-size="14.00">Profile</text>
</g>
<!-- User&#45;&gt;Order -->
<g id="edge6" class="edge"><title>User&#45;&gt;Order</title>
<path fill="none" stroke="#3b9573" d="M301.465,-69.1918C291.902,-60.2663 280.586,-49.7054 270.808,-40.5792"/>
<ellipse fill="none" stroke="#3b9573" cx="304.586" cy="-72.1052" rx="4.00002" ry="4.00002"/>
<polygon fill="#3b9573" stroke="#3b9573" points="270.669,-40.4496 266.429,-30.3366 267.014,-37.038 263.359,-33.6263 263.359,-33.6263 263.359,-33.6263 267.014,-37.038 260.288,-36.9161 270.669,-40.4496 270.669,-40.4496"/>
</g>
<!-- User&#45;&gt;Profile -->
<g id="edge5" class="edge"><title>User&#45;&gt;Profile</title>
<path fill="none" stroke="#28c1c5" d="M325.224,-63.6398C325.781,-58.0629 326.375,-52.1319 326.94,-46.4761"/>
<ellipse fill="none" stroke="#28c1c5" cx="324.816" cy="-67.7165" rx="4" ry="4"/>
<polygon fill="#28c1c5" stroke="#28c1c5" points="326.982,-46.0547 332.455,-36.5521 327.48,-41.0795 327.977,-36.1043 327.977,-36.1043 327.977,-36.1043 327.48,-41.0795 323.5,-35.6565 326.982,-46.0547 326.982,-46.0547"/>
</g>
<!-- UserDetail -->
<g id="node7" class="node"><title>UserDetail</title>
<ellipse fill="none" stroke="black" cx="429.688" cy="-18" rx="48.3255" ry="18"/>
<text text-anchor="middle" x="429.688" y="-13.8" font-family="Times,serif" font-size="14.00">UserDetail</text>
</g>
<!-- User&#45;&gt;UserDetail -->
<g id="edge4" class="edge"><title>User&#45;&gt;UserDetail</title>
<path fill="none" stroke="#adca57" d="M348.089,-72.3822C363.131,-62.5419 382.31,-49.9949 398.294,-39.5378"/>
<ellipse fill="none" stroke="#adca57" cx="344.673" cy="-74.6171" rx="4.00002" ry="4.00002"/>
<polygon fill="#adca57" stroke="#adca57" points="398.431,-39.4485 409.263,-37.7396 402.615,-36.7111 406.799,-33.9738 406.799,-33.9738 406.799,-33.9738 402.615,-36.7111 404.336,-30.2081 398.431,-39.4485 398.431,-39.4485"/>
</g>
</g>
</svg>
