<?xml version="1.0" encoding="UTF-8" standalone="no"?>
<!DOCTYPE svg PUBLIC "-//W3C//DTD SVG 1.1//EN"
 "http://www.w3.org/Graphics/SVG/1.1/DTD/svg11.dtd">
<!-- Generated by graphviz version 2.38.0 (20140413.2041)
 -->
<!-- Title: models_diagram Pages: 1 -->
<svg width="686pt" height="761pt"
 viewBox="0.00 0.00 685.58 761.00" xmlns="http://www.w3.org/2000/svg" xmlns:xlink="http://www.w3.org/1999/xlink">
<g id="graph0" class="graph" transform="scale(1 1) rotate(0) translate(4 757)">
<title>models_diagram</title>
<polygon fill="none" stroke="none" points="-4,4 -4,-757 681.579,-757 681.579,4 -4,4"/>
<!-- _diagram_info -->
<g id="node1" class="node"><title>_diagram_info</title>
<text text-anchor="start" x="8" y="-661.6" font-family="Times,serif" font-size="13.00">Models diagram</text>
<text text-anchor="start" x="8" y="-648.6" font-family="Times,serif" font-size="13.00">Date: Sep 03 2016 &#45; 22:26</text>
<text text-anchor="start" x="8" y="-635.6" font-family="Times,serif" font-size="13.00">Migration version: 20160903132236</text>
<text text-anchor="start" x="8" y="-622.6" font-family="Times,serif" font-size="13.00">Generated by RailRoady 1.5.1</text>
<text text-anchor="start" x="8" y="-609.6" font-family="Times,serif" font-size="13.00">http://railroady.prestonlee.com</text>
</g>
<!-- Book -->
<g id="node2" class="node"><title>Book</title>
<path fill="none" stroke="black" d="M237.738,-526.5C237.738,-526.5 357.638,-526.5 357.638,-526.5 363.638,-526.5 369.638,-532.5 369.638,-538.5 369.638,-538.5 369.638,-740.5 369.638,-740.5 369.638,-746.5 363.638,-752.5 357.638,-752.5 357.638,-752.5 237.738,-752.5 237.738,-752.5 231.738,-752.5 225.738,-746.5 225.738,-740.5 225.738,-740.5 225.738,-538.5 225.738,-538.5 225.738,-532.5 231.738,-526.5 237.738,-526.5"/>
<text text-anchor="middle" x="297.688" y="-737.3" font-family="Times,serif" font-size="14.00">Book</text>
<polyline fill="none" stroke="black" points="225.738,-730.5 369.638,-730.5 "/>
<text text-anchor="start" x="233.738" y="-715.3" font-family="Times,serif" font-size="14.00">liks_count :int(11)</text>
<text text-anchor="start" x="233.738" y="-701.3" font-family="Times,serif" font-size="14.00">created_at :datetime</text>
<text text-anchor="start" x="233.738" y="-687.3" font-family="Times,serif" font-size="14.00">updated_at :datetime</text>
<text text-anchor="start" x="233.738" y="-673.3" font-family="Times,serif" font-size="14.00">user_id :int(11)</text>
<text text-anchor="start" x="233.738" y="-659.3" font-family="Times,serif" font-size="14.00">profiles_id :int(11)</text>
<text text-anchor="start" x="233.738" y="-645.3" font-family="Times,serif" font-size="14.00">title :varchar(255)</text>
<text text-anchor="start" x="233.738" y="-631.3" font-family="Times,serif" font-size="14.00">sub_title :varchar(255)</text>
<text text-anchor="start" x="233.738" y="-617.3" font-family="Times,serif" font-size="14.00">price :int(11)</text>
<text text-anchor="start" x="233.738" y="-603.3" font-family="Times,serif" font-size="14.00">state :int(11)</text>
<text text-anchor="start" x="233.738" y="-589.3" font-family="Times,serif" font-size="14.00">discription :text</text>
<text text-anchor="start" x="233.738" y="-575.3" font-family="Times,serif" font-size="14.00">likes_count :int(11)</text>
<text text-anchor="start" x="233.738" y="-561.3" font-family="Times,serif" font-size="14.00">content :text</text>
<text text-anchor="start" x="233.738" y="-547.3" font-family="Times,serif" font-size="14.00">sold? :varchar(255)</text>
<text text-anchor="start" x="233.738" y="-533.3" font-family="Times,serif" font-size="14.00">id :int(11)</text>
</g>
<!-- Like -->
<g id="node3" class="node"><title>Like</title>
<path fill="none" stroke="black" d="M148.182,-298.5C148.182,-298.5 257.193,-298.5 257.193,-298.5 263.193,-298.5 269.193,-304.5 269.193,-310.5 269.193,-310.5 269.193,-372.5 269.193,-372.5 269.193,-378.5 263.193,-384.5 257.193,-384.5 257.193,-384.5 148.182,-384.5 148.182,-384.5 142.182,-384.5 136.182,-378.5 136.182,-372.5 136.182,-372.5 136.182,-310.5 136.182,-310.5 136.182,-304.5 142.182,-298.5 148.182,-298.5"/>
<text text-anchor="middle" x="202.688" y="-369.3" font-family="Times,serif" font-size="14.00">Like</text>
<polyline fill="none" stroke="black" points="136.182,-362.5 269.193,-362.5 "/>
<text text-anchor="start" x="144.182" y="-347.3" font-family="Times,serif" font-size="14.00">id :int(11)</text>
<text text-anchor="start" x="144.182" y="-333.3" font-family="Times,serif" font-size="14.00">created_at :datetime</text>
<text text-anchor="start" x="144.182" y="-319.3" font-family="Times,serif" font-size="14.00">updated_at :datetime</text>
<text text-anchor="start" x="144.182" y="-305.3" font-family="Times,serif" font-size="14.00">book_id :int(11)</text>
</g>
<!-- Book&#45;&gt;Like -->
<g id="edge3" class="edge"><title>Book&#45;&gt;Like</title>
<path fill="none" stroke="#f40a9d" d="M259.107,-518.29C245.247,-475.107 230.337,-428.651 219.328,-394.347"/>
<ellipse fill="none" stroke="#f40a9d" cx="260.414" cy="-522.364" rx="4.00001" ry="4.00001"/>
<polygon fill="#f40a9d" stroke="#f40a9d" points="219.242,-394.079 220.471,-383.183 217.714,-389.319 216.186,-384.558 216.186,-384.558 216.186,-384.558 217.714,-389.319 211.901,-385.933 219.242,-394.079 219.242,-394.079"/>
</g>
<!-- Order -->
<g id="node4" class="node"><title>Order</title>
<path fill="none" stroke="black" d="M240.182,-21.5C240.182,-21.5 349.193,-21.5 349.193,-21.5 355.193,-21.5 361.193,-27.5 361.193,-33.5 361.193,-33.5 361.193,-123.5 361.193,-123.5 361.193,-129.5 355.193,-135.5 349.193,-135.5 349.193,-135.5 240.182,-135.5 240.182,-135.5 234.182,-135.5 228.182,-129.5 228.182,-123.5 228.182,-123.5 228.182,-33.5 228.182,-33.5 228.182,-27.5 234.182,-21.5 240.182,-21.5"/>
<text text-anchor="middle" x="294.688" y="-120.3" font-family="Times,serif" font-size="14.00">Order</text>
<polyline fill="none" stroke="black" points="228.182,-113.5 361.193,-113.5 "/>
<text text-anchor="start" x="236.182" y="-98.3" font-family="Times,serif" font-size="14.00">id :int(11)</text>
<text text-anchor="start" x="236.182" y="-84.3" font-family="Times,serif" font-size="14.00">created_at :datetime</text>
<text text-anchor="start" x="236.182" y="-70.3" font-family="Times,serif" font-size="14.00">updated_at :datetime</text>
<text text-anchor="start" x="236.182" y="-56.3" font-family="Times,serif" font-size="14.00">user_id :int(11)</text>
<text text-anchor="start" x="236.182" y="-42.3" font-family="Times,serif" font-size="14.00">book_id :int(11)</text>
<text text-anchor="start" x="236.182" y="-28.3" font-family="Times,serif" font-size="14.00">position :int(11)</text>
</g>
<!-- Book&#45;&gt;Order -->
<g id="edge1" class="edge"><title>Book&#45;&gt;Order</title>
<path fill="none" stroke="#da549d" d="M297.043,-518.324C296.432,-404.422 295.536,-237.517 295.044,-145.86"/>
<ellipse fill="none" stroke="#da549d" cx="297.065" cy="-522.386" rx="4" ry="4"/>
<polygon fill="#da549d" stroke="#da549d" points="295.043,-145.605 299.489,-135.581 295.016,-140.605 294.989,-135.606 294.989,-135.606 294.989,-135.606 295.016,-140.605 290.489,-135.63 295.043,-145.605 295.043,-145.605"/>
</g>
<!-- User -->
<g id="node6" class="node"><title>User</title>
<path fill="none" stroke="black" d="M343.641,-193.5C343.641,-193.5 539.735,-193.5 539.735,-193.5 545.735,-193.5 551.735,-199.5 551.735,-205.5 551.735,-205.5 551.735,-477.5 551.735,-477.5 551.735,-483.5 545.735,-489.5 539.735,-489.5 539.735,-489.5 343.641,-489.5 343.641,-489.5 337.641,-489.5 331.641,-483.5 331.641,-477.5 331.641,-477.5 331.641,-205.5 331.641,-205.5 331.641,-199.5 337.641,-193.5 343.641,-193.5"/>
<text text-anchor="middle" x="441.688" y="-474.3" font-family="Times,serif" font-size="14.00">User</text>
<polyline fill="none" stroke="black" points="331.641,-467.5 551.735,-467.5 "/>
<text text-anchor="start" x="339.641" y="-452.3" font-family="Times,serif" font-size="14.00">updated_at :datetime</text>
<text text-anchor="start" x="339.641" y="-438.3" font-family="Times,serif" font-size="14.00">email :varchar(255)</text>
<text text-anchor="start" x="339.641" y="-424.3" font-family="Times,serif" font-size="14.00">encrypted_password :varchar(255)</text>
<text text-anchor="start" x="339.641" y="-410.3" font-family="Times,serif" font-size="14.00">reset_password_token :varchar(255)</text>
<text text-anchor="start" x="339.641" y="-396.3" font-family="Times,serif" font-size="14.00">reset_password_sent_at :datetime</text>
<text text-anchor="start" x="339.641" y="-382.3" font-family="Times,serif" font-size="14.00">remember_created_at :datetime</text>
<text text-anchor="start" x="339.641" y="-368.3" font-family="Times,serif" font-size="14.00">sign_in_count :int(11)</text>
<text text-anchor="start" x="339.641" y="-354.3" font-family="Times,serif" font-size="14.00">current_sign_in_at :datetime</text>
<text text-anchor="start" x="339.641" y="-340.3" font-family="Times,serif" font-size="14.00">last_sign_in_at :datetime</text>
<text text-anchor="start" x="339.641" y="-326.3" font-family="Times,serif" font-size="14.00">current_sign_in_ip :varchar(255)</text>
<text text-anchor="start" x="339.641" y="-312.3" font-family="Times,serif" font-size="14.00">last_sign_in_ip :varchar(255)</text>
<text text-anchor="start" x="339.641" y="-298.3" font-family="Times,serif" font-size="14.00">pro_img :text</text>
<text text-anchor="start" x="339.641" y="-284.3" font-family="Times,serif" font-size="14.00">image_cache :text</text>
<text text-anchor="start" x="339.641" y="-270.3" font-family="Times,serif" font-size="14.00">confirmation_token :varchar(255)</text>
<text text-anchor="start" x="339.641" y="-256.3" font-family="Times,serif" font-size="14.00">confirmed_at :datetime</text>
<text text-anchor="start" x="339.641" y="-242.3" font-family="Times,serif" font-size="14.00">confirmation_sent_at :datetime</text>
<text text-anchor="start" x="339.641" y="-228.3" font-family="Times,serif" font-size="14.00">unconfirmed_email :varchar(255)</text>
<text text-anchor="start" x="339.641" y="-214.3" font-family="Times,serif" font-size="14.00">created_at :datetime</text>
<text text-anchor="start" x="339.641" y="-200.3" font-family="Times,serif" font-size="14.00">id :int(11)</text>
</g>
<!-- Book&#45;&gt;User -->
<g id="edge2" class="edge"><title>Book&#45;&gt;User</title>
<path fill="none" stroke="#4f4abd" d="M356.717,-517.162C359.679,-511.074 362.671,-504.923 365.673,-498.753"/>
<polygon fill="#4f4abd" stroke="#4f4abd" points="356.708,-517.181 348.287,-524.204 354.521,-521.677 352.333,-526.173 352.333,-526.173 352.333,-526.173 354.521,-521.677 356.38,-528.142 356.708,-517.181 356.708,-517.181"/>
<polygon fill="#4f4abd" stroke="#4f4abd" points="365.7,-498.697 374.121,-491.673 367.887,-494.201 370.075,-489.705 370.075,-489.705 370.075,-489.705 367.887,-494.201 366.028,-487.736 365.7,-498.697 365.7,-498.697"/>
</g>
<!-- Profile -->
<g id="node5" class="node"><title>Profile</title>
<path fill="none" stroke="black" d="M391.182,-35.5C391.182,-35.5 500.193,-35.5 500.193,-35.5 506.193,-35.5 512.193,-41.5 512.193,-47.5 512.193,-47.5 512.193,-109.5 512.193,-109.5 512.193,-115.5 506.193,-121.5 500.193,-121.5 500.193,-121.5 391.182,-121.5 391.182,-121.5 385.182,-121.5 379.182,-115.5 379.182,-109.5 379.182,-109.5 379.182,-47.5 379.182,-47.5 379.182,-41.5 385.182,-35.5 391.182,-35.5"/>
<text text-anchor="middle" x="445.688" y="-106.3" font-family="Times,serif" font-size="14.00">Profile</text>
<polyline fill="none" stroke="black" points="379.182,-99.5 512.193,-99.5 "/>
<text text-anchor="start" x="387.182" y="-84.3" font-family="Times,serif" font-size="14.00">id :int(11)</text>
<text text-anchor="start" x="387.182" y="-70.3" font-family="Times,serif" font-size="14.00">created_at :datetime</text>
<text text-anchor="start" x="387.182" y="-56.3" font-family="Times,serif" font-size="14.00">updated_at :datetime</text>
<text text-anchor="start" x="387.182" y="-42.3" font-family="Times,serif" font-size="14.00">user_id :int(11)</text>
</g>
<!-- User&#45;&gt;Order -->
<g id="edge6" class="edge"><title>User&#45;&gt;Order</title>
<path fill="none" stroke="#6d013b" d="M354.699,-186.05C346.495,-171.485 338.524,-157.331 331.212,-144.349"/>
<ellipse fill="none" stroke="#6d013b" cx="356.773" cy="-189.734" rx="4.00002" ry="4.00002"/>
<polygon fill="#6d013b" stroke="#6d013b" points="331.168,-144.272 330.182,-133.35 328.715,-139.915 326.261,-135.559 326.261,-135.559 326.261,-135.559 328.715,-139.915 322.34,-137.767 331.168,-144.272 331.168,-144.272"/>
</g>
<!-- User&#45;&gt;Profile -->
<g id="edge5" class="edge"><title>User&#45;&gt;Profile</title>
<path fill="none" stroke="#29f82c" d="M444.072,-184.95C444.364,-165.867 444.645,-147.527 444.889,-131.646"/>
<ellipse fill="none" stroke="#29f82c" cx="444.006" cy="-189.22" rx="4" ry="4"/>
<polygon fill="#29f82c" stroke="#29f82c" points="444.889,-131.58 449.542,-121.65 444.966,-126.581 445.043,-121.581 445.043,-121.581 445.043,-121.581 444.966,-126.581 440.543,-121.512 444.889,-131.58 444.889,-131.58"/>
</g>
<!-- UserDetail -->
<g id="node7" class="node"><title>UserDetail</title>
<path fill="none" stroke="black" d="M541.796,-0.5C541.796,-0.5 665.579,-0.5 665.579,-0.5 671.579,-0.5 677.579,-6.5 677.579,-12.5 677.579,-12.5 677.579,-144.5 677.579,-144.5 677.579,-150.5 671.579,-156.5 665.579,-156.5 665.579,-156.5 541.796,-156.5 541.796,-156.5 535.796,-156.5 529.796,-150.5 529.796,-144.5 529.796,-144.5 529.796,-12.5 529.796,-12.5 529.796,-6.5 535.796,-0.5 541.796,-0.5"/>
<text text-anchor="middle" x="603.688" y="-141.3" font-family="Times,serif" font-size="14.00">UserDetail</text>
<polyline fill="none" stroke="black" points="529.796,-134.5 677.579,-134.5 "/>
<text text-anchor="start" x="537.796" y="-119.3" font-family="Times,serif" font-size="14.00">user_id :int(11)</text>
<text text-anchor="start" x="537.796" y="-105.3" font-family="Times,serif" font-size="14.00">created_at :datetime</text>
<text text-anchor="start" x="537.796" y="-91.3" font-family="Times,serif" font-size="14.00">updated_at :datetime</text>
<text text-anchor="start" x="537.796" y="-77.3" font-family="Times,serif" font-size="14.00">lastname :varchar(255)</text>
<text text-anchor="start" x="537.796" y="-63.3" font-family="Times,serif" font-size="14.00">firstname :varchar(255)</text>
<text text-anchor="start" x="537.796" y="-49.3" font-family="Times,serif" font-size="14.00">postalcode :int(11)</text>
<text text-anchor="start" x="537.796" y="-35.3" font-family="Times,serif" font-size="14.00">callnumber :int(11)</text>
<text text-anchor="start" x="537.796" y="-21.3" font-family="Times,serif" font-size="14.00">place :int(11)</text>
<text text-anchor="start" x="537.796" y="-7.3" font-family="Times,serif" font-size="14.00">id :int(11)</text>
</g>
<!-- User&#45;&gt;UserDetail -->
<g id="edge4" class="edge"><title>User&#45;&gt;UserDetail</title>
<path fill="none" stroke="#93ebe1" d="M537.488,-186.155C541.923,-179.01 546.297,-171.964 550.553,-165.106"/>
<ellipse fill="none" stroke="#93ebe1" cx="535.213" cy="-189.821" rx="4.00002" ry="4.00002"/>
<polygon fill="#93ebe1" stroke="#93ebe1" points="550.605,-165.023 559.702,-158.899 553.242,-160.774 555.878,-156.526 555.878,-156.526 555.878,-156.526 553.242,-160.774 552.055,-154.153 550.605,-165.023 550.605,-165.023"/>
</g>
</g>
</svg>
